<svg width="325" height="234" viewBox="0 0 325 234" fill="none" xmlns="http://www.w3.org/2000/svg">
<circle opacity="0.3" cx="117" cy="117" r="59" stroke="white" stroke-width="2"/>
<circle opacity="0.02" cx="117" cy="117" r="116" stroke="white" stroke-width="2"/>
<path d="M164.492 108.6C165.856 108.6 167.037 108.827 168.034 109.282C169.046 109.737 169.823 110.382 170.366 111.218C170.909 112.054 171.18 113.044 171.18 114.188C171.18 115.317 170.909 116.307 170.366 117.158C169.823 117.994 169.046 118.639 168.034 119.094C167.037 119.534 165.856 119.754 164.492 119.754H161.39V124H157.826V108.6H164.492ZM164.294 116.85C165.365 116.85 166.179 116.623 166.736 116.168C167.293 115.699 167.572 115.039 167.572 114.188C167.572 113.323 167.293 112.663 166.736 112.208C166.179 111.739 165.365 111.504 164.294 111.504H161.39V116.85H164.294ZM173.724 108.6H177.288V121.096H185.01V124H173.724V108.6ZM197.273 120.7H190.123L188.759 124H185.107L191.971 108.6H195.491L202.377 124H198.637L197.273 120.7ZM196.151 117.994L193.709 112.098L191.267 117.994H196.151ZM210.421 118.544V124H206.857V118.5L200.895 108.6H204.679L208.793 115.442L212.907 108.6H216.405L210.421 118.544Z" fill="white"/>
<path d="M133.527 116.07L109.693 99.1952C109.361 98.9612 108.932 98.9353 108.576 99.1299C108.222 99.3246 108 99.7071 108 100.124V133.875C108 134.292 108.222 134.675 108.577 134.869C108.736 134.957 108.91 135 109.083 135C109.297 135 109.51 134.934 109.693 134.804L133.527 117.929C133.822 117.72 134 117.372 134 117C134 116.627 133.822 116.28 133.527 116.07ZM110.167 131.745V102.254L130.994 117L110.167 131.745Z" fill="#FF4553"/>
</svg>
